<svg preserveAspectRatio="none" viewBox="0 0 3452 370" fill="none" xmlns="http://www.w3.org/2000/svg">
<path d="M14 93.6231C14 93.6231 555.884 316.457 902 312.123C1166.81 308.807 1300.17 168.229 1565 169.623C1716.81 170.422 1798.69 219.742 1950.5 219.623C2247.03 219.39 2388.52 32.4723 2685 27.1231C2960.68 22.1491 3448.5 206 3448.5 206" stroke="#F8BEBD" stroke-opacity="0.4" stroke-width="18"/>
<path d="M14 68.5991C14 68.5991 555.884 291.433 902 287.099C1166.81 283.783 1300.17 143.205 1565 144.599C1716.81 145.398 1798.69 194.718 1950.5 194.599C2247.03 194.367 2388.52 7.44839 2685 2.09913C2960.68 -2.87479 3448.5 180.976 3448.5 180.976" stroke="#F8BEBD" stroke-opacity="0.4" stroke-width="4"/>
<path d="M3 126.599C3 126.599 544.884 349.433 891 345.099C1155.81 341.783 1289.17 201.205 1554 202.599C1705.81 203.398 1787.69 252.718 1939.5 252.599C2236.03 252.367 2377.52 65.4484 2674 60.0991C2949.68 55.1252 3437.5 238.976 3437.5 238.976" stroke="#F8BEBD" stroke-opacity="0.4" stroke-width="12"/>
<path d="M3 148.599C3 148.599 544.884 371.433 891 367.099C1155.81 363.783 1289.17 223.205 1554 224.599C1705.81 225.398 1787.69 274.718 1939.5 274.599C2236.03 274.367 2377.52 87.4484 2674 82.0991C2949.68 77.1252 3437.5 260.976 3437.5 260.976" stroke="#F8BEBD" stroke-opacity="0.4" stroke-width="4"/>
</svg>
