<svg  viewBox="0 0 1728 149" fill="none" preserveAspectRatio="none" xmlns="http://www.w3.org/2000/svg">
<path d="M1 28.5682C1 28.5682 163.497 -0.591349 268.5 1.06825C418.261 3.43526 496.005 62.3423 645.5 71.5682C831.828 83.0672 940.589 -18.4919 1121.5 27.5682C1204.41 48.678 1238.95 97.5814 1323 113.568C1459.14 139.462 1537.07 28.1203 1673 55.0682C1695.16 59.4612 1729 69.5682 1729 69.5682" stroke="#ED9298"/>
<path d="M1 42.5682C1 42.5682 163.497 13.4087 268.5 15.0682C418.261 17.4353 496.005 76.3423 645.5 85.5682C831.828 97.0672 940.589 -4.49191 1121.5 41.5682C1204.41 62.678 1238.95 111.581 1323 127.568C1459.14 153.462 1537.07 42.1203 1673 69.0682C1695.16 73.4612 1729 83.5682 1729 83.5682" stroke="#ED9298"/>
<path d="M1 58.5682C1 58.5682 163.497 29.4087 268.5 31.0682C418.261 33.4353 496.005 92.3423 645.5 101.568C831.828 113.067 940.589 11.5081 1121.5 57.5682C1204.41 78.678 1238.95 127.581 1323 143.568C1459.14 169.462 1537.07 58.1203 1673 85.0682C1695.16 89.4612 1729 99.5682 1729 99.5682" stroke="#ED9298"/>
</svg>
